<?xml version="1.0" encoding="UTF-8" standalone="no" ?>
<!DOCTYPE svg PUBLIC "-//W3C//DTD SVG 1.1//EN" "http://www.w3.org/Graphics/SVG/1.1/DTD/svg11.dtd">
<svg xmlns="http://www.w3.org/2000/svg" xmlns:xlink="http://www.w3.org/1999/xlink" version="1.1" width="1080" height="1080" viewBox="0 0 1080 1080" xml:space="preserve">
<desc>Created with Fabric.js 5.2.4</desc>
<defs>
</defs>
<g transform="matrix(1 0 0 1 540 540)" id="092618f7-b787-42c8-9c59-7cf735dd581d"  >
<rect style="stroke: none; stroke-width: 1; stroke-dasharray: none; stroke-linecap: butt; stroke-dashoffset: 0; stroke-linejoin: miter; stroke-miterlimit: 4; fill: rgb(255,255,255); fill-rule: nonzero; opacity: 1; visibility: hidden;" vector-effect="non-scaling-stroke"  x="-540" y="-540" rx="0" ry="0" width="1080" height="1080" />
</g>
<g transform="matrix(1 0 0 1 540 540)" id="6e703b52-e028-4f85-acad-b1ee3b793a50"  >
</g>
<g transform="matrix(77.14 0 0 77.14 540 540)" id="Path_337386"  >
<path style="stroke: none; stroke-width: 1; stroke-dasharray: none; stroke-linecap: butt; stroke-dashoffset: 0; stroke-linejoin: miter; stroke-miterlimit: 4; fill: rgb(47,91,150); fill-rule: nonzero; opacity: 1;"  transform=" translate(-8.15, 4.31)" d="M 8.159 2.693 C 9.087456270900685 2.6983975005870127 10.006900154443507 2.5107628413899405 10.859000000000004 2.141999999999999 C 11.693716066594988 1.7825699697035873 12.452513317865469 1.2677687934167707 13.094999999999999 0.6250000000000013 C 13.73591774236204 -0.01396802568528599 14.24938461663146 -0.769066370199138 14.608000000000002 -1.6000000000000023 C 14.975572378223818 -2.454479133373298 15.162158947200384 -3.3758354393050216 15.156000000000002 -4.305999999999997 C 15.161397500587013 -5.234456270900681 14.973762841389942 -6.153900154443503 14.605 -7.0059999999999985 C 14.245214292492212 -7.8431311330405125 13.730137954580398 -8.604548328214497 13.086999999999994 -9.250000000000004 C 12.446830724768184 -9.893631106008051 11.688238458279864 -10.407395698307436 10.853000000000002 -10.762999999999998 C 9.9996904604483 -11.127126304681553 9.08073771938857 -11.312278264361735 8.152999999999999 -11.306999999999999 C 7.225190634319556 -11.313019445922798 6.306088578525516 -11.127837402088739 5.452999999999993 -10.762999999999996 C 4.618825986055453 -10.405985743956203 3.8608164889969654 -9.892385936947921 3.219999999999998 -9.249999999999998 C 2.575226323462405 -8.607777497469112 2.05928420929611 -7.848120621479527 1.6999999999999997 -7.011999999999999 C 1.333432330015957 -6.159314651451266 1.1468710758895315 -5.240125990609394 1.151999999999999 -4.3119999999999985 C 1.1458806904500505 -3.379292858564402 1.334573606993605 -2.455583129925192 1.7059999999999993 -1.5999999999999983 C 2.0668957002885957 -0.7693413342679162 2.581603542346958 -0.014413879699783472 3.2230000000000003 0.6250000000000013 C 3.8638954674258486 1.2669171064483709 4.6205609503993434 1.7816532219958114 5.453000000000001 2.1420000000000012 C 6.306952471942056 2.511578696687031 7.22852462899557 2.6992306769296355 8.158999999999999 2.693000000000001 Z M 8.159 1.4100000000000001 C 7.394297520305376 1.4160207983634174 6.636440584140511 1.2656064446207735 5.932 0.9680000000000009 C 5.250832000055926 0.6796020138286851 4.6318162769120566 0.26228422790229144 4.109000000000001 -0.2610000000000001 C 3.586546942013413 -0.7834644520675609 3.1708127149004977 -1.402650314834593 2.8850000000000007 -2.0840000000000005 C 2.589260519450362 -2.7885952764775 2.439573586742821 -3.5458750769479273 2.4450000000000003 -4.3100000000000005 C 2.4395735867428208 -5.074124923052073 2.5892605194503617 -5.831404723522502 2.8849999999999993 -6.536000000000002 C 3.170699207541417 -7.217706031498648 3.586439396892263 -7.837240431315593 4.109000000000001 -8.36 C 4.630620640447916 -8.882331790309125 5.2487341196366275 -9.298369708993837 5.9289999999999985 -9.585 C 6.6324528014223 -9.881036241604168 7.388815677468727 -10.030743693453214 8.152 -10.025000000000002 C 8.917399644784211 -10.030220102548427 9.675945496356112 -9.880551862776391 10.382 -9.585 C 11.064635542262849 -9.299480025098882 11.684918750472665 -8.883353557378715 12.207999999999997 -8.360000000000003 C 12.730811849191365 -7.837624009744116 13.146889735409816 -7.218432183967593 13.433 -6.536999999999999 C 13.728739480549637 -5.832404723522499 13.878426413257179 -5.075124923052071 13.873000000000001 -4.310999999999998 C 13.878426413257179 -3.5468750769479263 13.728739480549638 -2.7895952764775016 13.433000000000002 -2.0850000000000017 C 13.147003251151254 -1.4032114537353855 12.730919397707195 -0.7836710874643944 12.208 -0.26100000000000056 C 11.685183723087944 0.2622842279022921 11.066167999944074 0.6796020138286859 10.385 0.968000000000001 C 9.680941276184388 1.2658155799192554 8.923435610751973 1.4165680551153739 8.159 1.4109999999999996 Z M 11.659 -4.325 C 11.650377336969354 -4.493563600217246 11.575208155448875 -4.651814508681413 11.450000000000001 -4.765000000000001 L 9.144000000000002 -7.065 C 9.03861569252773 -7.162777144006401 8.89864878376696 -7.21459008709522 8.755000000000003 -7.2090000000000005 C 8.615694583984908 -7.212565066306707 8.481221405966252 -7.157833395468926 8.384000000000002 -7.058 C 8.286991229991342 -6.960764366175925 8.233584612646482 -6.828330389381577 8.236000000000002 -6.691000000000001 C 8.231330672038922 -6.54001620635889 8.291797861609245 -6.394312135105099 8.402000000000003 -6.291 L 9.245000000000003 -5.470000000000001 L 10.038000000000002 -4.822000000000001 L 8.62 -4.887 L 5.183 -4.887 C 5.0326778413025774 -4.892442787166477 4.887170364908169 -4.833512259226741 4.7829999999999995 -4.725 C 4.680001996147719 -4.617707863988506 4.624191122356263 -4.4736798025911995 4.627999999999999 -4.324999999999999 C 4.623739531833111 -4.176242083233872 4.67961568353217 -4.032045562720174 4.7829999999999995 -3.9249999999999994 C 4.8881912394798945 -3.818334141081103 5.033286020444754 -3.7606589656475715 5.183 -3.7659999999999996 L 8.62 -3.7659999999999996 L 10.039 -3.8239999999999994 L 9.246 -3.1679999999999993 L 8.4 -2.35 C 8.289849873799414 -2.2512716482355364 8.22906833636779 -2.108837804495168 8.234 -1.961 C 8.230990868245462 -1.82031215138166 8.284266386108984 -1.6842435990005042 8.382 -1.5830000000000002 C 8.47787292016628 -1.480745664181764 8.61287796531078 -1.4243419391213938 8.753 -1.4280000000000002 C 8.899058916600518 -1.4250129229647488 9.03985076927263 -1.4825602354965381 9.142 -1.587 L 11.448 -3.878 C 11.577318925695398 -3.991467497392534 11.65433262811474 -4.1530878024697495 11.661 -4.325 Z" stroke-linecap="round" />
</g>
</svg>