<?xml version="1.0" encoding="UTF-8" standalone="no" ?>
<!DOCTYPE svg PUBLIC "-//W3C//DTD SVG 1.1//EN" "http://www.w3.org/Graphics/SVG/1.1/DTD/svg11.dtd">
<svg xmlns="http://www.w3.org/2000/svg" xmlns:xlink="http://www.w3.org/1999/xlink" version="1.1" width="1080" height="1080" viewBox="0 0 1080 1080" xml:space="preserve">
<desc>Created with Fabric.js 5.2.4</desc>
<defs>
</defs>
<g transform="matrix(1 0 0 1 540 540)" id="f63a6c38-39b6-47fc-aa28-0ea2923a424e"  >
<rect style="stroke: none; stroke-width: 1; stroke-dasharray: none; stroke-linecap: butt; stroke-dashoffset: 0; stroke-linejoin: miter; stroke-miterlimit: 4; fill: rgb(255,255,255); fill-rule: nonzero; opacity: 1; visibility: hidden;" vector-effect="non-scaling-stroke"  x="-540" y="-540" rx="0" ry="0" width="1080" height="1080" />
</g>
<g transform="matrix(1 0 0 1 540 540)" id="a0a65965-8643-4140-9bc3-099102f04ac1"  >
</g>
<g transform="matrix(49.09 0 0 49.09 540 540)"  >
<g style=""   >
		<g transform="matrix(0.55 0 0 0.55 0 0)" id="Rectangle_114376"  >
<rect style="stroke: none; stroke-width: 1; stroke-dasharray: none; stroke-linecap: butt; stroke-dashoffset: 0; stroke-linejoin: miter; stroke-miterlimit: 4; fill: rgb(255,255,255); fill-opacity: 0; fill-rule: nonzero; opacity: 1;" vector-effect="non-scaling-stroke"  x="-11" y="-11" rx="0" ry="0" width="22" height="22" />
</g>
		<g transform="matrix(0.55 0 0 0.55 0.08 -0.12)" id="Path_332351"  >
<path style="stroke: none; stroke-width: 1; stroke-dasharray: none; stroke-linecap: butt; stroke-dashoffset: 0; stroke-linejoin: miter; stroke-miterlimit: 4; fill: rgb(244,199,48); fill-rule: evenodd; opacity: 1;" vector-effect="non-scaling-stroke"  transform=" translate(-1154.51, -370.29)" d="M 1153.144 361.362 C 1153.4013668369864 360.8411313594778 1153.9320164981173 360.5114377281021 1154.513 360.5114377281021 C 1155.0939835018828 360.5114377281021 1155.6246331630136 360.8411313594778 1155.882 361.362 L 1158.1950000000002 366.05400000000003 L 1163.3490000000002 366.822 C 1163.922514410445 366.9063410015947 1164.3988179096668 367.3081510286768 1164.5785648485862 367.8592619263073 C 1164.7583117875058 368.41037282393785 1164.6105028510592 369.01573952234554 1164.1970000000001 369.422 L 1160.468 373.105 L 1161.336 378.284 C 1161.4307371865625 378.8556051712246 1161.1935870114662 379.43155504004244 1160.7238324810203 379.7707279862129 C 1160.2540779505741 380.1099009323833 1159.6327624741618 380.1537818588785 1159.1200000000001 379.884 L 1154.5140000000001 377.46000000000004 L 1149.9070000000002 379.884 C 1149.3942375258384 380.1537818588785 1148.7729220494261 380.1099009323833 1148.30316751898 379.7707279862129 C 1147.833412988534 379.43155504004244 1147.5962628134378 378.8556051712246 1147.6910000000003 378.284 L 1148.5590000000002 373.105 L 1144.8300000000002 369.422 C 1144.4157137810564 369.01604332107485 1144.2673927370874 368.41031464814097 1144.447247084 367.85887443355074 C 1144.6271014309125 367.3074342189605 1145.1040319773251 366.90563375704346 1145.678 366.822 L 1150.832 366.05400000000003 Z" stroke-linecap="round" />
</g>
</g>
</g>
</svg>